<mxfile host="Electron" agent="Mozilla/5.0 (Macintosh; Intel Mac OS X 10_15_7) AppleWebKit/537.36 (KHTML, like Gecko) draw.io/26.1.1 Chrome/132.0.6834.210 Electron/34.3.3 Safari/537.36" version="26.1.1">
  <diagram name="Page-1" id="7cQDsf1GYGvMw77-HFB6">
    <mxGraphModel dx="806" dy="604" grid="1" gridSize="10" guides="1" tooltips="1" connect="1" arrows="1" fold="1" page="1" pageScale="1" pageWidth="850" pageHeight="1100" math="0" shadow="0">
      <root>
        <mxCell id="0" />
        <mxCell id="1" parent="0" />
        <mxCell id="tiLeBXoMDvdlyB191soW-1" value="ACTIVITY DIAGRAM" style="text;strokeColor=none;fillColor=none;html=1;fontSize=24;fontStyle=1;verticalAlign=middle;align=center;" vertex="1" parent="1">
          <mxGeometry x="475" y="230" width="100" height="40" as="geometry" />
        </mxCell>
        <mxCell id="tiLeBXoMDvdlyB191soW-2" value="ACTIVITY" style="rounded=1;whiteSpace=wrap;html=1;" vertex="1" parent="1">
          <mxGeometry x="370" y="300" width="120" height="60" as="geometry" />
        </mxCell>
        <mxCell id="tiLeBXoMDvdlyB191soW-3" value="ACTION" style="rounded=1;whiteSpace=wrap;html=1;" vertex="1" parent="1">
          <mxGeometry x="210" y="300" width="120" height="60" as="geometry" />
        </mxCell>
        <mxCell id="tiLeBXoMDvdlyB191soW-4" value="&lt;u&gt;CLASS NAME&lt;/u&gt;" style="rounded=0;whiteSpace=wrap;html=1;" vertex="1" parent="1">
          <mxGeometry x="530" y="300" width="120" height="60" as="geometry" />
        </mxCell>
        <mxCell id="tiLeBXoMDvdlyB191soW-5" value="" style="endArrow=classic;html=1;rounded=0;" edge="1" parent="1">
          <mxGeometry width="50" height="50" relative="1" as="geometry">
            <mxPoint x="230" y="440" as="sourcePoint" />
            <mxPoint x="390" y="440" as="targetPoint" />
          </mxGeometry>
        </mxCell>
        <mxCell id="tiLeBXoMDvdlyB191soW-6" value="CONTROL FLOW" style="text;html=1;align=center;verticalAlign=middle;whiteSpace=wrap;rounded=0;" vertex="1" parent="1">
          <mxGeometry x="250" y="450" width="120" height="30" as="geometry" />
        </mxCell>
        <mxCell id="tiLeBXoMDvdlyB191soW-7" value="" style="endArrow=classic;html=1;rounded=0;dashed=1;" edge="1" parent="1">
          <mxGeometry width="50" height="50" relative="1" as="geometry">
            <mxPoint x="425" y="440" as="sourcePoint" />
            <mxPoint x="585" y="440" as="targetPoint" />
          </mxGeometry>
        </mxCell>
        <mxCell id="tiLeBXoMDvdlyB191soW-8" value="OBJECT FLOW" style="text;html=1;align=center;verticalAlign=middle;whiteSpace=wrap;rounded=0;" vertex="1" parent="1">
          <mxGeometry x="440" y="450" width="120" height="30" as="geometry" />
        </mxCell>
        <mxCell id="tiLeBXoMDvdlyB191soW-9" value="" style="ellipse;whiteSpace=wrap;html=1;aspect=fixed;fillColor=#545454;" vertex="1" parent="1">
          <mxGeometry x="280" y="520" width="40" height="40" as="geometry" />
        </mxCell>
        <mxCell id="tiLeBXoMDvdlyB191soW-11" value="" style="ellipse;whiteSpace=wrap;html=1;aspect=fixed;fillColor=#FFFFFF;strokeColor=#545454;" vertex="1" parent="1">
          <mxGeometry x="515" y="520" width="40" height="40" as="geometry" />
        </mxCell>
        <mxCell id="tiLeBXoMDvdlyB191soW-10" value="" style="ellipse;whiteSpace=wrap;html=1;aspect=fixed;fillColor=#545454;" vertex="1" parent="1">
          <mxGeometry x="520" y="525" width="30" height="30" as="geometry" />
        </mxCell>
        <mxCell id="tiLeBXoMDvdlyB191soW-12" value="" style="ellipse;whiteSpace=wrap;html=1;aspect=fixed;fillColor=#FFFFFF;strokeColor=#545454;" vertex="1" parent="1">
          <mxGeometry x="400" y="520" width="40" height="40" as="geometry" />
        </mxCell>
        <mxCell id="tiLeBXoMDvdlyB191soW-13" value="" style="endArrow=none;html=1;rounded=0;entryX=1;entryY=0;entryDx=0;entryDy=0;exitX=0;exitY=1;exitDx=0;exitDy=0;strokeWidth=2;" edge="1" parent="1" source="tiLeBXoMDvdlyB191soW-12" target="tiLeBXoMDvdlyB191soW-12">
          <mxGeometry width="50" height="50" relative="1" as="geometry">
            <mxPoint x="410" y="555" as="sourcePoint" />
            <mxPoint x="460" y="505" as="targetPoint" />
            <Array as="points" />
          </mxGeometry>
        </mxCell>
        <mxCell id="tiLeBXoMDvdlyB191soW-14" value="" style="endArrow=none;html=1;rounded=0;entryX=1;entryY=1;entryDx=0;entryDy=0;exitX=0;exitY=0;exitDx=0;exitDy=0;strokeWidth=2;" edge="1" parent="1" source="tiLeBXoMDvdlyB191soW-12" target="tiLeBXoMDvdlyB191soW-12">
          <mxGeometry width="50" height="50" relative="1" as="geometry">
            <mxPoint x="416" y="564" as="sourcePoint" />
            <mxPoint x="444" y="536" as="targetPoint" />
            <Array as="points" />
          </mxGeometry>
        </mxCell>
        <mxCell id="tiLeBXoMDvdlyB191soW-15" value="INITIAL NODE" style="text;html=1;align=center;verticalAlign=middle;whiteSpace=wrap;rounded=0;" vertex="1" parent="1">
          <mxGeometry x="240" y="560" width="120" height="30" as="geometry" />
        </mxCell>
        <mxCell id="tiLeBXoMDvdlyB191soW-17" value="FINAL-ACTIVITY NODE" style="text;html=1;align=center;verticalAlign=middle;whiteSpace=wrap;rounded=0;" vertex="1" parent="1">
          <mxGeometry x="360" y="570" width="120" height="30" as="geometry" />
        </mxCell>
        <mxCell id="tiLeBXoMDvdlyB191soW-19" value="FINAL-FLOW&lt;div&gt;&amp;nbsp;NODE&lt;/div&gt;" style="text;html=1;align=center;verticalAlign=middle;whiteSpace=wrap;rounded=0;" vertex="1" parent="1">
          <mxGeometry x="475" y="570" width="120" height="30" as="geometry" />
        </mxCell>
        <mxCell id="tiLeBXoMDvdlyB191soW-20" value="" style="rhombus;whiteSpace=wrap;html=1;" vertex="1" parent="1">
          <mxGeometry x="720" y="480" width="40" height="40" as="geometry" />
        </mxCell>
        <mxCell id="tiLeBXoMDvdlyB191soW-21" value="" style="endArrow=block;html=1;rounded=0;strokeWidth=2;endFill=1;" edge="1" parent="1">
          <mxGeometry width="50" height="50" relative="1" as="geometry">
            <mxPoint x="640" y="500.31" as="sourcePoint" />
            <mxPoint x="640" y="560" as="targetPoint" />
          </mxGeometry>
        </mxCell>
        <mxCell id="tiLeBXoMDvdlyB191soW-22" value="" style="endArrow=none;html=1;rounded=0;exitX=0;exitY=0.5;exitDx=0;exitDy=0;strokeWidth=2;" edge="1" parent="1" source="tiLeBXoMDvdlyB191soW-20">
          <mxGeometry width="50" height="50" relative="1" as="geometry">
            <mxPoint x="680" y="500" as="sourcePoint" />
            <mxPoint x="640" y="500" as="targetPoint" />
          </mxGeometry>
        </mxCell>
        <mxCell id="tiLeBXoMDvdlyB191soW-26" value="[Decision Criteria]" style="text;html=1;align=center;verticalAlign=middle;whiteSpace=wrap;rounded=0;" vertex="1" parent="1">
          <mxGeometry x="650" y="510" width="60" height="30" as="geometry" />
        </mxCell>
        <mxCell id="tiLeBXoMDvdlyB191soW-27" value="" style="endArrow=blockThin;html=1;rounded=0;endFill=1;" edge="1" parent="1">
          <mxGeometry width="50" height="50" relative="1" as="geometry">
            <mxPoint x="740" y="440" as="sourcePoint" />
            <mxPoint x="740" y="480" as="targetPoint" />
          </mxGeometry>
        </mxCell>
        <mxCell id="tiLeBXoMDvdlyB191soW-28" value="[Decision Criteria]" style="text;html=1;align=center;verticalAlign=middle;whiteSpace=wrap;rounded=0;" vertex="1" parent="1">
          <mxGeometry x="770" y="510" width="60" height="30" as="geometry" />
        </mxCell>
        <mxCell id="tiLeBXoMDvdlyB191soW-29" value="" style="endArrow=none;html=1;rounded=0;exitX=0;exitY=0.5;exitDx=0;exitDy=0;strokeWidth=2;" edge="1" parent="1">
          <mxGeometry width="50" height="50" relative="1" as="geometry">
            <mxPoint x="840" y="499.81" as="sourcePoint" />
            <mxPoint x="760" y="499.81" as="targetPoint" />
          </mxGeometry>
        </mxCell>
        <mxCell id="tiLeBXoMDvdlyB191soW-30" value="" style="endArrow=block;html=1;rounded=0;strokeWidth=2;endFill=1;" edge="1" parent="1">
          <mxGeometry width="50" height="50" relative="1" as="geometry">
            <mxPoint x="840" y="500.31" as="sourcePoint" />
            <mxPoint x="840" y="560" as="targetPoint" />
          </mxGeometry>
        </mxCell>
        <mxCell id="tiLeBXoMDvdlyB191soW-31" value="DECISION NODE" style="text;html=1;align=center;verticalAlign=middle;whiteSpace=wrap;rounded=0;" vertex="1" parent="1">
          <mxGeometry x="680" y="570" width="120" height="30" as="geometry" />
        </mxCell>
        <mxCell id="tiLeBXoMDvdlyB191soW-32" value="" style="rhombus;whiteSpace=wrap;html=1;" vertex="1" parent="1">
          <mxGeometry x="720" y="650" width="40" height="40" as="geometry" />
        </mxCell>
        <mxCell id="tiLeBXoMDvdlyB191soW-33" value="" style="endArrow=block;html=1;rounded=0;strokeWidth=2;endFill=1;entryX=0;entryY=0.5;entryDx=0;entryDy=0;" edge="1" parent="1" target="tiLeBXoMDvdlyB191soW-32">
          <mxGeometry width="50" height="50" relative="1" as="geometry">
            <mxPoint x="640" y="670" as="sourcePoint" />
            <mxPoint x="660" y="659.69" as="targetPoint" />
          </mxGeometry>
        </mxCell>
        <mxCell id="tiLeBXoMDvdlyB191soW-34" value="" style="endArrow=none;html=1;rounded=0;strokeWidth=2;" edge="1" parent="1">
          <mxGeometry width="50" height="50" relative="1" as="geometry">
            <mxPoint x="640" y="620" as="sourcePoint" />
            <mxPoint x="640" y="669.71" as="targetPoint" />
          </mxGeometry>
        </mxCell>
        <mxCell id="tiLeBXoMDvdlyB191soW-35" value="" style="endArrow=block;html=1;rounded=0;strokeWidth=2;endFill=1;entryX=1;entryY=0.5;entryDx=0;entryDy=0;" edge="1" parent="1" target="tiLeBXoMDvdlyB191soW-32">
          <mxGeometry width="50" height="50" relative="1" as="geometry">
            <mxPoint x="840" y="670" as="sourcePoint" />
            <mxPoint x="840" y="669.71" as="targetPoint" />
          </mxGeometry>
        </mxCell>
        <mxCell id="tiLeBXoMDvdlyB191soW-36" value="" style="endArrow=none;html=1;rounded=0;strokeWidth=2;" edge="1" parent="1">
          <mxGeometry width="50" height="50" relative="1" as="geometry">
            <mxPoint x="840" y="620" as="sourcePoint" />
            <mxPoint x="840" y="669.71" as="targetPoint" />
          </mxGeometry>
        </mxCell>
        <mxCell id="tiLeBXoMDvdlyB191soW-37" value="" style="endArrow=blockThin;html=1;rounded=0;endFill=1;" edge="1" parent="1">
          <mxGeometry width="50" height="50" relative="1" as="geometry">
            <mxPoint x="739.71" y="690" as="sourcePoint" />
            <mxPoint x="740" y="720" as="targetPoint" />
          </mxGeometry>
        </mxCell>
        <mxCell id="tiLeBXoMDvdlyB191soW-38" value="MERGE NODE" style="text;html=1;align=center;verticalAlign=middle;whiteSpace=wrap;rounded=0;" vertex="1" parent="1">
          <mxGeometry x="680" y="730" width="120" height="30" as="geometry" />
        </mxCell>
        <mxCell id="tiLeBXoMDvdlyB191soW-39" value="" style="endArrow=none;html=1;rounded=0;exitX=0;exitY=0.5;exitDx=0;exitDy=0;strokeWidth=2;" edge="1" parent="1">
          <mxGeometry width="50" height="50" relative="1" as="geometry">
            <mxPoint x="360" y="680" as="sourcePoint" />
            <mxPoint x="280" y="680" as="targetPoint" />
          </mxGeometry>
        </mxCell>
        <mxCell id="tiLeBXoMDvdlyB191soW-40" value="" style="endArrow=blockThin;html=1;rounded=0;endFill=1;" edge="1" parent="1">
          <mxGeometry width="50" height="50" relative="1" as="geometry">
            <mxPoint x="320" y="640" as="sourcePoint" />
            <mxPoint x="320" y="680" as="targetPoint" />
          </mxGeometry>
        </mxCell>
        <mxCell id="tiLeBXoMDvdlyB191soW-41" value="" style="endArrow=blockThin;html=1;rounded=0;endFill=1;" edge="1" parent="1">
          <mxGeometry width="50" height="50" relative="1" as="geometry">
            <mxPoint x="299.71" y="680" as="sourcePoint" />
            <mxPoint x="299.71" y="720" as="targetPoint" />
          </mxGeometry>
        </mxCell>
        <mxCell id="tiLeBXoMDvdlyB191soW-42" value="" style="endArrow=blockThin;html=1;rounded=0;endFill=1;" edge="1" parent="1">
          <mxGeometry width="50" height="50" relative="1" as="geometry">
            <mxPoint x="340" y="680" as="sourcePoint" />
            <mxPoint x="340" y="720" as="targetPoint" />
          </mxGeometry>
        </mxCell>
        <mxCell id="tiLeBXoMDvdlyB191soW-43" value="FORK NODE" style="text;html=1;align=center;verticalAlign=middle;whiteSpace=wrap;rounded=0;" vertex="1" parent="1">
          <mxGeometry x="260" y="730" width="120" height="30" as="geometry" />
        </mxCell>
        <mxCell id="tiLeBXoMDvdlyB191soW-44" value="" style="endArrow=none;html=1;rounded=0;exitX=0;exitY=0.5;exitDx=0;exitDy=0;strokeWidth=2;" edge="1" parent="1">
          <mxGeometry width="50" height="50" relative="1" as="geometry">
            <mxPoint x="500" y="680" as="sourcePoint" />
            <mxPoint x="420" y="680" as="targetPoint" />
          </mxGeometry>
        </mxCell>
        <mxCell id="tiLeBXoMDvdlyB191soW-45" value="" style="endArrow=blockThin;html=1;rounded=0;endFill=1;" edge="1" parent="1">
          <mxGeometry width="50" height="50" relative="1" as="geometry">
            <mxPoint x="440" y="640" as="sourcePoint" />
            <mxPoint x="440" y="680" as="targetPoint" />
          </mxGeometry>
        </mxCell>
        <mxCell id="tiLeBXoMDvdlyB191soW-46" value="" style="endArrow=blockThin;html=1;rounded=0;endFill=1;" edge="1" parent="1">
          <mxGeometry width="50" height="50" relative="1" as="geometry">
            <mxPoint x="480.28999999999996" y="640" as="sourcePoint" />
            <mxPoint x="480.28999999999996" y="680" as="targetPoint" />
          </mxGeometry>
        </mxCell>
        <mxCell id="tiLeBXoMDvdlyB191soW-47" value="" style="endArrow=blockThin;html=1;rounded=0;endFill=1;" edge="1" parent="1">
          <mxGeometry width="50" height="50" relative="1" as="geometry">
            <mxPoint x="460" y="680" as="sourcePoint" />
            <mxPoint x="460" y="720" as="targetPoint" />
          </mxGeometry>
        </mxCell>
        <mxCell id="tiLeBXoMDvdlyB191soW-48" value="JOIN NODE" style="text;html=1;align=center;verticalAlign=middle;whiteSpace=wrap;rounded=0;" vertex="1" parent="1">
          <mxGeometry x="400" y="730" width="120" height="30" as="geometry" />
        </mxCell>
        <mxCell id="tiLeBXoMDvdlyB191soW-49" value="Swimlane" style="rounded=0;whiteSpace=wrap;html=1;" vertex="1" parent="1">
          <mxGeometry x="690" y="300" width="120" height="60" as="geometry" />
        </mxCell>
      </root>
    </mxGraphModel>
  </diagram>
</mxfile>
